<?xml version="1.0" standalone="no"?>
<!DOCTYPE svg PUBLIC "-//W3C//DTD SVG 20010904//EN"
 "http://www.w3.org/TR/2001/REC-SVG-20010904/DTD/svg10.dtd">
<svg version="1.0" xmlns="http://www.w3.org/2000/svg"
 width="96.000000pt" height="96.000000pt" viewBox="0 0 96.000000 96.000000"
 preserveAspectRatio="xMidYMid meet">
<metadata>
Created by potrace 1.14, written by Peter Selinger 2001-2017
</metadata>
<g transform="translate(0.000000,96.000000) scale(0.100000,-0.100000)"
fill="#000000" stroke="none">
<path d="M168 863 c-3 -40 -6 -48 -23 -48 -19 0 -20 -8 -23 -205 l-2 -206 -35
4 -35 4 0 -181 0 -181 430 0 430 0 0 180 0 180 -35 0 -35 0 -2 203 c-2 153 -6
202 -15 203 -7 1 -17 2 -23 3 -5 0 -10 21 -10 46 l0 45 -309 0 -310 0 -3 -47z"/>
</g>
</svg>
